<?xml version="1.0" encoding="UTF-8"?> <svg xmlns="http://www.w3.org/2000/svg" xmlns:xlink="http://www.w3.org/1999/xlink" width="1265px" height="230px" viewBox="0 0 1265 230" version="1.1"><!-- Generator: Sketch 55.2 (78181) - https://sketchapp.com --><title>Full-color</title><desc>Created with Sketch.</desc><g id="Full-color" stroke="none" stroke-width="1" fill="none" fill-rule="evenodd"><g id="Group-4" transform="translate(256.847826, 54.750000)" fill="#FF261F"><polyline id="Fill-5-Copy" points="62.7094656 87.374825 62.2201417 87.374825 31.6397758 1.68055 -1.0658141e-14 1.68055 -1.0658141e-14 117.959917 24.1193907 117.959917 24.1193907 38.418475 24.618216 38.335825 54.3624557 117.959917 70.7191746 117.959917 100.468165 38.4965333 100.971741 38.57 100.971741 117.959917 125.095882 117.959917 125.095882 1.68055 93.617631 1.68055 62.7094656 87.374825"></polyline><polyline id="Fill-6-Copy" points="188.299423 66.8454833 232.913407 66.8454833 232.913407 48.8828833 188.299423 48.8828833 188.299423 19.64315 241.179654 19.64315 241.179654 1.68055 164.17053 1.68055 164.17053 117.959917 241.336428 117.959917 241.336428 100.066192 188.299423 100.066192 188.299423 66.8454833"></polyline><path d="M343.619367,69.4856917 C343.619367,78.4256667 341.196501,85.7585583 336.35077,91.4843667 C331.500288,97.210175 325.110573,100.066192 317.176876,100.066192 L299.328432,100.066192 L299.328432,19.6477417 L317.176876,19.6477417 C325.110573,19.6477417 331.500288,22.4991667 336.35077,28.1928333 C341.196501,33.8910917 343.619367,41.1780667 343.619367,50.072125 L343.619367,69.4856917 Z M317.176876,1.68055 L275.19954,1.68055 L275.19954,117.959917 L317.176876,117.959917 C331.885096,117.959917 343.999424,113.446308 353.534114,104.423683 C363.059301,95.3964667 367.829021,83.752 367.829021,69.4856917 L367.829021,50.237425 C367.829021,36.021625 363.059301,24.3725667 353.534114,15.2948417 C343.999424,6.21711667 331.885096,1.68055 317.176876,1.68055 L317.176876,1.68055 Z" id="Fill-7-Copy"></path><polygon id="Fill-8-Copy" points="402.357233 117.959917 426.490876 117.959917 426.490876 1.67136667 402.357233 1.67136667"></polygon><path d="M498.440486,74.5962167 L511.828007,33.6293667 L512.322082,33.6293667 L525.62884,74.5962167 L498.440486,74.5962167 Z M499.765936,1.67595833 L459.190062,117.955325 L484.397367,117.955325 L492.483087,92.8756417 L531.491225,92.8756417 L539.681461,117.955325 L564.874514,117.955325 L524.469665,1.67595833 L499.765936,1.67595833 L499.765936,1.67595833 Z" id="Fill-9-Copy"></path><polyline id="Fill-10-Copy" points="672.525763 56.3076083 604.196199 56.3076083 604.196199 1.67595833 594.271951 1.67595833 594.271951 117.955325 604.196199 117.955325 604.196199 64.4440417 672.525763 64.4440417 672.525763 117.955325 682.435759 117.955325 682.435759 1.67595833 672.525763 1.67595833 672.525763 56.3076083"></polyline><path d="M804.80473,78.9077917 C804.80473,88.9681333 801.664506,96.9300833 795.384058,102.779867 C789.098859,108.648017 781.060646,111.572908 771.250415,111.572908 C761.668219,111.572908 753.801031,108.62965 747.658354,102.743133 C741.520428,96.8658 738.446714,88.917625 738.446714,78.9077917 L738.446714,1.67595833 L728.536718,1.67595833 L728.536718,78.9077917 C728.536718,91.6358917 732.513068,101.595217 740.470519,108.813317 C748.432721,116.031417 758.69427,119.640467 771.250415,119.640467 C783.977586,119.640467 794.386407,116.0406 802.48638,108.854642 C810.581602,101.668683 814.633964,91.6864 814.633964,78.9077917 L814.633964,1.67595833 L804.80473,1.67595833 L804.80473,78.9077917" id="Fill-11-Copy"></path><polygon id="Fill-12-Copy" points="863.115032 117.959917 873.029778 117.959917 873.029778 1.67136667 863.115032 1.67136667"></polygon><path d="M991.09935,68.7648 C984.424592,63.544075 974.766385,59.1544417 962.096222,55.5867167 C949.915383,52.2899 941.416351,48.7313583 936.608625,44.920275 C931.772395,41.1275583 929.363781,36.2558 929.363781,30.3555083 C929.363781,24.120025 932.024183,18.87175 937.344986,14.5785417 C942.656288,10.2945167 949.991395,8.15020833 959.36456,8.15020833 C968.452682,8.15020833 975.882803,10.675625 981.635921,15.7356417 C987.38904,20.7956583 990.272725,27.1551167 990.272725,34.8232 L999.517621,34.8232 L999.688646,34.3456667 C999.907179,24.3863417 996.291884,16.17185 988.857011,9.6976 C981.422139,3.237125 971.592906,4.79616347e-14 959.36456,4.79616347e-14 C947.739555,4.79616347e-14 938.185863,2.86060833 930.684481,8.58641667 C923.202101,14.312225 919.453785,21.6175667 919.453785,30.5070333 C919.453785,39.2403833 922.803041,46.1508417 929.496801,51.2384083 C936.18106,56.3167917 945.953285,60.568675 958.794474,63.9711 C970.514493,67.3873 978.8425,71.0284917 983.735738,74.9130417 C988.643229,78.806775 991.09935,83.7290417 991.09935,89.6936167 C991.09935,96.135725 988.196662,101.388592 982.415039,105.465992 C976.628666,109.534208 969.141536,111.572908 959.948898,111.572908 C950.965292,111.572908 942.979337,109.368908 935.972029,104.974683 C928.988475,100.589642 925.487196,93.8995833 925.487196,84.8999167 L916.313561,84.8999167 L916.152037,85.3728583 C915.866994,96.5581583 920.137889,105.066517 928.95522,110.893342 C937.7678,116.724758 948.095859,119.640467 959.948898,119.640467 C971.782934,119.640467 981.607417,116.885467 989.398593,111.375467 C997.19452,105.865467 1001.09486,98.5784917 1001.09486,89.5329083 C1001.09486,80.9051667 997.759855,73.9809333 991.09935,68.7648" id="Fill-13-Copy"></path></g><g id="Group-2"><g id="Group"><polygon id="Fill-1-Copy" fill="#FF261F" points="194.137914 56.7678333 97.0594975 1.17239551e-13 97.0594975 113.543333"></polygon><polyline id="Fill-2-Copy" fill="#EBEBEB" points="97.0594975 113.543333 0.00378370098 56.7678333 0.00378370098 170.322667 97.0594975 113.543333 194.137914 170.322667 194.137914 56.7678333 97.0594975 113.543333"></polyline><polyline id="Fill-3-Copy" fill="#FF8A17" points="3.01980663e-14 56.7678333 97.0557138 113.5395 97.0557138 4.79616347e-14 3.01980663e-14 56.7678333"></polyline><polyline id="Fill-4-Copy" fill="#BEBEBE" points="6.75015599e-14 170.330333 97.0557138 227.098167 194.141697 170.330333 97.0557138 113.5395 6.75015599e-14 170.330333"></polyline></g></g></g></svg> 